<svg id="Filled" height="512" viewBox="0 0 512 512" width="512" xmlns="http://www.w3.org/2000/svg"><path d="m95.91 384a40.005 40.005 0 0 1 -39.91-37.33q.18-5.625.77-10.98c8.34-76.95 76.4-111.69 159.14-111.69s150.8 34.74 159.14 111.69q.585 5.355.77 10.98a40.005 40.005 0 0 1 -39.91 37.33z" fill="#95573a"/><ellipse cx="215.91" cy="360" fill="#a36f58" rx="80" ry="112"/><circle cx="311.91" cy="72" fill="#95573a" r="48"/><circle cx="119.91" cy="72" fill="#95573a" r="48"/><ellipse cx="215.91" cy="160" fill="#ad6643" rx="120" ry="112"/><g fill="#7a4830"><ellipse cx="135.91" cy="424" rx="56" ry="64"/><ellipse cx="295.91" cy="424" rx="56" ry="64"/><path d="m235.269 180.438-13.578 9.688a9.853 9.853 0 0 1 -11.562 0l-13.578-9.688a11.387 11.387 0 0 1 -4.641-9.282c0-6.156 4.666-11.156 10.422-11.156h27.156c5.756 0 10.422 5 10.422 11.156a11.387 11.387 0 0 1 -4.641 9.282z"/></g><path d="m328 296 40-32h48l40 32v160h-128z" fill="#499154"/><path d="m216 240c35.29 0 64-23.327 64-52a8 8 0 0 0 -16 0c0 17.806-17.329 32.625-40 35.49v-25.39a17.914 17.914 0 0 0 2.428-1.459l13.578-9.689a19.373 19.373 0 0 0 7.994-15.797c0-10.562-8.264-19.155-18.422-19.155h-27.156c-10.158 0-18.422 8.593-18.422 19.155a19.373 19.373 0 0 0 7.994 15.794l13.577 9.689a17.924 17.924 0 0 0 2.429 1.462v25.39c-22.671-2.865-40-17.684-40-35.49a8 8 0 0 0 -16 0c0 28.673 28.71 52 64 52zm-14.711-66.074a3.408 3.408 0 0 1 -1.289-2.771c0-1.71 1.109-3.155 2.422-3.155h27.156c1.313 0 2.422 1.445 2.422 3.155a3.408 3.408 0 0 1 -1.289 2.771l-13.578 9.688a1.856 1.856 0 0 1 -2.267 0z"/><circle cx="264" cy="144" r="8"/><circle cx="168" cy="144" r="8"/><path d="m136 496c18.986 0 36.058-9.358 47.789-24.178a67.177 67.177 0 0 0 64.37-.068c11.732 14.859 28.827 24.246 47.841 24.246 21.427 0 41.421-12.142 53.231-32h106.769a8 8 0 0 0 8-8v-160a8 8 0 0 0 -3-6.247l-40-32a8 8 0 0 0 -5-1.753h-48a8 8 0 0 0 -5 1.753l-9.914 7.931a130.126 130.126 0 0 0 -36.647-27.96c17.837-20.949 27.561-48.177 27.561-77.724a126.358 126.358 0 0 0 -5.868-38.47 56 56 0 1 0 -76.124-74.784 152.279 152.279 0 0 0 -46.008-6.746 152.279 152.279 0 0 0 -46.008 6.746 56 56 0 1 0 -76.124 74.784 126.358 126.358 0 0 0 -5.868 38.47c0 29.516 9.7 56.718 27.5 77.658-38.985 20.342-61.974 53.721-66.683 97.162-.415 3.8-.688 7.7-.813 11.594-.008.26 0 .521.013.78a48.1 48.1 0 0 0 31.947 42.068 78.657 78.657 0 0 0 -7.964 34.738c0 39.7 28.71 72 64 72zm0-16c-26.467 0-48-25.121-48-56s21.533-56 48-56 48 25.121 48 56-21.533 56-48 56zm79.91-16a51.682 51.682 0 0 1 -23.607-5.793 78.733 78.733 0 0 0 7.697-34.207c0-36.614-24.425-66.91-55.9-71.4 1.531-31.347 12.74-59.75 30.793-77.9a162.033 162.033 0 0 0 82.08.039c18.036 18.157 29.231 46.555 30.756 77.886-31.396 4.575-55.729 34.83-55.729 71.375a78.739 78.739 0 0 0 7.663 34.133 51.707 51.707 0 0 1 -23.753 5.867zm80.09 16c-26.467 0-48-25.121-48-56s21.533-56 48-56a42.621 42.621 0 0 1 24 7.521v80.479a8 8 0 0 0 8 8h1.544c-8.878 10.092-20.918 16-33.544 16zm74.807-208h42.386l34.807 27.845v148.155h-112v-148.155zm-30.245 3.706-17.562 14.047a8 8 0 0 0 -3 6.247v61.232a57.975 57.975 0 0 0 -16.258-4.7c-1.462-32.494-12.412-62.485-30.3-83.5a116.979 116.979 0 0 0 31.149-19.354c14.315 6.857 26.37 15.581 35.971 26.028zm-28.562-243.706a40 40 0 0 1 20.179 74.542 111.655 111.655 0 0 0 -22.4-31.442 115.7 115.7 0 0 0 -32.742-22.549 39.952 39.952 0 0 1 34.963-20.551zm-232 40a40.009 40.009 0 0 1 74.967-19.449 115.717 115.717 0 0 0 -32.743 22.549 111.657 111.657 0 0 0 -22.4 31.442 40.112 40.112 0 0 1 -19.824-34.542zm53.442 14.509c20.297-19.959 48.845-30.509 82.558-30.509s62.261 10.55 82.558 30.509c18.986 18.67 29.442 44.769 29.442 73.491s-10.456 54.821-29.442 73.491c-20.297 19.959-48.845 30.509-82.558 30.509s-62.261-10.55-82.558-30.509c-18.986-18.67-29.442-44.769-29.442-73.491s10.456-54.821 29.442-73.491zm-69.432 260.01c.117-3.353.357-6.7.714-9.967 4.27-39.4 25.891-69.354 62.618-86.928a116.976 116.976 0 0 0 31.081 19.353c-17.922 21.022-28.891 51.051-30.346 83.6-15.385 2.147-29.094 10.449-39.106 22.658a32.061 32.061 0 0 1 -24.961-28.716z"/><path d="m392 400a8.009 8.009 0 0 1 -8-8 8 8 0 0 0 -16 0 24.039 24.039 0 0 0 16 22.624v9.376a8 8 0 0 0 16 0v-9.376a24 24 0 0 0 -8-46.624 8 8 0 1 1 8-8 8 8 0 0 0 16 0 24.039 24.039 0 0 0 -16-22.624v-9.376a8 8 0 0 0 -16 0v9.376a24 24 0 0 0 8 46.624 8 8 0 0 1 0 16z"/><circle cx="392" cy="296" r="8"/></svg>